<svg width="32" height="32" viewBox="0 0 32 32" fill="none" xmlns="http://www.w3.org/2000/svg">
  <!-- Background -->
  <rect width="32" height="32" rx="6" fill="url(#gradient)" />
  
  <!-- Robot Icon -->
  <g transform="translate(6, 6)">
    <!-- Head -->
    <rect x="5" y="2" width="10" height="8" rx="2" fill="white" opacity="0.9"/>
    
    <!-- Eyes -->
    <circle cx="8" cy="5" r="1" fill="#0f172a"/>
    <circle cx="12" cy="5" r="1" fill="#0f172a"/>
    
    <!-- Mouth -->
    <rect x="9" y="7" width="2" height="1" rx="0.5" fill="#0f172a"/>
    
    <!-- Body -->
    <rect x="4" y="10" width="12" height="10" rx="2" fill="white" opacity="0.9"/>
    
    <!-- Arms -->
    <rect x="1" y="12" width="3" height="2" rx="1" fill="white" opacity="0.9"/>
    <rect x="16" y="12" width="3" height="2" rx="1" fill="white" opacity="0.9"/>
    
    <!-- Legs -->
    <rect x="6" y="18" width="2" height="3" rx="1" fill="white" opacity="0.9"/>
    <rect x="12" y="18" width="2" height="3" rx="1" fill="white" opacity="0.9"/>
    
    <!-- Details -->
    <circle cx="7" cy="13" r="0.5" fill="#facc15"/>
    <circle cx="10" cy="13" r="0.5" fill="#f97316"/>
    <circle cx="13" cy="13" r="0.5" fill="#facc15"/>
  </g>
  
  <!-- Gradient Definition -->
  <defs>
    <linearGradient id="gradient" x1="0%" y1="0%" x2="100%" y2="100%">
      <stop offset="0%" style="stop-color:#facc15;stop-opacity:1" />
      <stop offset="50%" style="stop-color:#f97316;stop-opacity:1" />
      <stop offset="100%" style="stop-color:#8b5cf6;stop-opacity:1" />
    </linearGradient>
  </defs>
</svg>
